<?xml version="1.0" encoding="utf-8"?>
<svg width="15.167" height="13" viewBox="0 0 15.167 13" fill="none" xmlns="http://www.w3.org/2000/svg">
  <path d="M1.625 0C0.72908 0 0 0.729084 0 1.625C0 1.625 0 10.6528 0 10.6528C0 11.947 1.05299 13 2.34723 13C2.34723 13 12.8194 13 12.8194 13C14.1137 13 15.1667 11.947 15.1667 10.6528C15.1667 10.6528 15.1667 4.51389 15.1667 4.51389C15.1667 3.67972 14.5326 2.99823 13.7222 2.90723C13.7222 2.90723 13.7222 10.2917 13.7222 10.2917C13.7222 10.5907 13.4796 10.8333 13.1806 10.8333C12.8816 10.8333 12.6389 10.5907 12.6389 10.2917C12.6389 10.2917 12.6389 1.625 12.6389 1.625C12.6389 0.729084 11.9098 0 11.0139 0C11.0139 0 1.625 0 1.625 0C1.625 0 1.625 0 1.625 0ZM2.70833 3.25C2.70833 3.25 9.93056 3.25 9.93056 3.25C10.2299 3.25 10.4722 3.49267 10.4722 3.79167C10.4722 4.09067 10.2299 4.33333 9.93056 4.33333C9.93056 4.33333 2.70833 4.33333 2.70833 4.33333C2.40897 4.33333 2.16667 4.09067 2.16667 3.79167C2.16667 3.49267 2.40897 3.25 2.70833 3.25C2.70833 3.25 2.70833 3.25 2.70833 3.25ZM2.70833 6.13889C2.70833 6.13889 5.23611 6.13889 5.23611 6.13889C5.53548 6.13889 5.77777 6.38156 5.77777 6.68056C5.77777 6.68056 5.77777 9.20833 5.77777 9.20833C5.77777 9.50733 5.53548 9.75 5.23611 9.75C5.23611 9.75 2.70833 9.75 2.70833 9.75C2.40897 9.75 2.16667 9.50733 2.16667 9.20833C2.16667 9.20833 2.16667 6.68056 2.16667 6.68056C2.16667 6.38156 2.40897 6.13889 2.70833 6.13889C2.70833 6.13889 2.70833 6.13889 2.70833 6.13889ZM7.40277 6.13889C7.40277 6.13889 9.93056 6.13889 9.93056 6.13889C10.2299 6.13889 10.4722 6.38156 10.4722 6.68056C10.4722 6.97956 10.2299 7.22222 9.93056 7.22222C9.93056 7.22222 7.40277 7.22222 7.40277 7.22222C7.10342 7.22222 6.86111 6.97956 6.86111 6.68056C6.86111 6.38156 7.10342 6.13889 7.40277 6.13889C7.40277 6.13889 7.40277 6.13889 7.40277 6.13889ZM3.25 7.22222L3.25 8.66667L4.69444 8.66667L4.69444 7.22222L3.25 7.22222L3.25 7.22222ZM7.40277 8.66667C7.40277 8.66667 9.93056 8.66667 9.93056 8.66667C10.2299 8.66667 10.4722 8.90933 10.4722 9.20833C10.4722 9.50733 10.2299 9.75 9.93056 9.75C9.93056 9.75 7.40277 9.75 7.40277 9.75C7.10342 9.75 6.86111 9.50733 6.86111 9.20833C6.86111 8.90933 7.10342 8.66667 7.40277 8.66667C7.40277 8.66667 7.40277 8.66667 7.40277 8.66667Z" fill="#000000" />
</svg>