<?xml version="1.0" encoding="utf-8"?>
<svg width="15.789" height="15" viewBox="0 0 15.789 15" fill="none" xmlns="http://www.w3.org/2000/svg">
  <path d="M5.72368 0C4.96777 0 4.3421 0.625676 4.3421 1.38158C4.3421 1.38158 4.3421 3.55263 4.3421 3.55263C4.3421 3.55263 2.17105 3.55263 2.17105 3.55263C0.974213 3.55263 0 4.52684 0 5.72368C0 5.72368 0 7.10526 0 7.10526L3.1579 7.10526C3.1579 7.10526 3.1579 6.90789 3.1579 6.90789C3.1579 6.58105 3.42316 6.31579 3.75 6.31579C3.75 6.31579 4.9342 6.31579 4.9342 6.31579C5.26105 6.31579 5.52632 6.58105 5.52632 6.90789C5.52632 6.90789 5.52632 7.10526 5.52632 7.10526L10.2632 7.10526C10.2632 7.10526 10.2632 6.90789 10.2632 6.90789C10.2632 6.58105 10.5284 6.31579 10.8553 6.31579C10.8553 6.31579 12.0395 6.31579 12.0395 6.31579C12.3663 6.31579 12.6316 6.58105 12.6316 6.90789C12.6316 6.90789 12.6316 7.10526 12.6316 7.10526L15.7895 7.10526C15.7895 7.10526 15.7895 5.72368 15.7895 5.72368C15.7895 4.52684 14.8153 3.55263 13.6184 3.55263C13.6184 3.55263 11.4474 3.55263 11.4474 3.55263C11.4474 3.55263 11.4474 1.38158 11.4474 1.38158C11.4474 0.625676 10.8217 0 10.0658 0C10.0658 0 5.72368 0 5.72368 0C5.72368 0 5.72368 0 5.72368 0ZM5.72368 1.18421C5.72368 1.18421 10.0658 1.18421 10.0658 1.18421C10.1823 1.18421 10.2632 1.26511 10.2632 1.38158C10.2632 1.38158 10.2632 3.55263 10.2632 3.55263L5.52632 3.55263C5.52632 3.55263 5.52632 1.38158 5.52632 1.38158C5.52632 1.26511 5.60722 1.18421 5.72368 1.18421C5.72368 1.18421 5.72368 1.18421 5.72368 1.18421ZM0 8.28947C0 8.28947 0 12.8289 0 12.8289C0 14.0258 0.974213 15 2.17105 15C2.17105 15 13.6184 15 13.6184 15C14.8153 15 15.7895 14.0258 15.7895 12.8289C15.7895 12.8289 15.7895 8.28947 15.7895 8.28947L12.6316 8.28947C12.6316 8.28947 12.6316 8.48684 12.6316 8.48684C12.6316 8.81368 12.3663 9.07895 12.0395 9.07895C12.0395 9.07895 10.8553 9.07895 10.8553 9.07895C10.5284 9.07895 10.2632 8.81368 10.2632 8.48684C10.2632 8.48684 10.2632 8.28947 10.2632 8.28947L5.52632 8.28947C5.52632 8.28947 5.52632 8.48684 5.52632 8.48684C5.52632 8.81368 5.26105 9.07895 4.9342 9.07895C4.9342 9.07895 3.75 9.07895 3.75 9.07895C3.42316 9.07895 3.1579 8.81368 3.1579 8.48684C3.1579 8.48684 3.1579 8.28947 3.1579 8.28947L0 8.28947L0 8.28947Z" fill="#000000" />
</svg>