<?xml version="1.0" encoding="utf-8"?>
<svg width="14.508" height="10" viewBox="0 0 14.508 10" fill="none" xmlns="http://www.w3.org/2000/svg">
  <path d="M2.12518 7.62939e-06C2.04633 0.000574112 1.96773 0.0318947 1.9103 0.0944605C0.723978 1.38566 0 3.10832 0 5.00009C0 6.89186 0.723978 8.61451 1.9103 9.90571C2.02516 10.0308 2.22361 10.0304 2.3436 9.91043C2.3436 9.91043 2.98706 9.26698 2.98706 9.26698C3.10282 9.15121 3.10209 8.96699 2.99237 8.84548C2.07203 7.82691 1.51124 6.47778 1.51124 5.00009C1.51124 3.5224 2.07203 2.17326 2.99237 1.15469C3.10209 1.03319 3.10282 0.849258 2.98706 0.733194C2.98706 0.733194 2.3436 0.0897379 2.3436 0.0897379C2.28361 0.0297413 2.20403 -0.000558853 2.12518 7.62939e-06C2.12518 7.62939e-06 2.12518 7.62939e-06 2.12518 7.62939e-06ZM12.3827 7.62939e-06C12.3038 -0.000483513 12.2243 0.0297413 12.1643 0.0897379C12.1643 0.0897379 11.5202 0.733786 11.5202 0.733786C11.4045 0.849546 11.4052 1.03319 11.5149 1.15469C12.4356 2.17296 12.9967 3.5224 12.9967 5.00008C12.9967 6.47778 12.4359 7.82691 11.5155 8.84548C11.4058 8.96698 11.4051 9.15091 11.5208 9.26698C11.5208 9.26698 12.1643 9.91043 12.1643 9.91043C12.2843 10.0304 12.4827 10.0305 12.5976 9.90571C13.7839 8.61451 14.5079 6.89186 14.5079 5.00008C14.5079 3.10831 13.7839 1.38566 12.5976 0.0944605C12.5402 0.0318947 12.4616 0.000498772 12.3827 7.62939e-06C12.3827 7.62939e-06 12.3827 7.62939e-06 12.3827 7.62939e-06ZM10.4653 1.92861C10.3838 1.92457 10.3005 1.95355 10.2375 2.01657C10.2375 2.01657 9.59342 2.66061 9.59342 2.66061C9.48491 2.76912 9.47304 2.94387 9.57158 3.06145C10.0117 3.58675 10.2764 4.2629 10.2764 5.00008C10.2764 5.73727 10.0117 6.41313 9.57158 6.93813C9.47304 7.05571 9.48491 7.23046 9.59342 7.33896C9.59342 7.33896 10.2375 7.9836 10.2375 7.9836C10.3635 8.10964 10.5689 8.09833 10.6855 7.96353C11.3722 7.16892 11.7877 6.13291 11.7877 5.00008C11.7877 3.86726 11.3722 2.83125 10.6855 2.03664C10.6272 1.96924 10.5469 1.93265 10.4653 1.92861C10.4653 1.92861 10.4653 1.92861 10.4653 1.92861ZM4.04256 1.9292C3.961 1.93324 3.88071 1.96983 3.82237 2.03723C3.13567 2.83154 2.72023 3.86726 2.72023 5.00009C2.72023 6.13291 3.13567 7.16892 3.82237 7.96353C3.93904 8.09834 4.14439 8.10964 4.27043 7.9836C4.27043 7.9836 4.91448 7.33956 4.91448 7.33956C5.02299 7.23105 5.03485 7.0563 4.93632 6.93872C4.49625 6.41342 4.23147 5.73727 4.23147 5.00009C4.23147 4.2629 4.49625 3.58704 4.93632 3.06204C5.03485 2.94446 5.02299 2.76971 4.91448 2.66121C4.91448 2.66121 4.27043 2.01657 4.27043 2.01657C4.20741 1.95355 4.12413 1.92516 4.04256 1.9292C4.04256 1.9292 4.04256 1.9292 4.04256 1.9292ZM7.25395 3.1866C6.2523 3.1866 5.44046 3.99844 5.44046 5.00008C5.44046 6.00173 6.2523 6.81357 7.25395 6.81357C8.2556 6.81357 9.06744 6.00173 9.06744 5.00008C9.06744 3.99844 8.2556 3.1866 7.25395 3.1866C7.25395 3.1866 7.25395 3.1866 7.25395 3.1866Z" fill="#F6C006" />
</svg>