<?xml version="1.0" encoding="utf-8"?>
<svg width="15.789" height="15" viewBox="0 0 15.789 15" fill="none" xmlns="http://www.w3.org/2000/svg">
  <path d="M12.2368 0C10.9307 0 9.86842 1.06224 9.86842 2.36842C9.86842 3.67461 10.9307 4.73684 12.2368 4.73684C13.543 4.73684 14.6053 3.67461 14.6053 2.36842C14.6053 1.06224 13.543 0 12.2368 0C12.2368 0 12.2368 0 12.2368 0ZM6.9079 0.394737C5.71066 0.394737 4.73685 1.36895 4.73685 2.56579C4.73685 3.76263 5.71066 4.73684 6.9079 4.73684C8.10513 4.73684 9.07895 3.76263 9.07895 2.56579C9.07895 1.36895 8.10513 0.394737 6.9079 0.394737C6.9079 0.394737 6.9079 0.394737 6.9079 0.394737ZM2.5658 1.18421C1.58644 1.18421 0.789474 1.98118 0.789474 2.96053C0.789474 3.93987 1.58644 4.73684 2.5658 4.73684C3.54514 4.73684 4.3421 3.93987 4.3421 2.96053C4.3421 1.98118 3.54514 1.18421 2.5658 1.18421C2.5658 1.18421 2.5658 1.18421 2.5658 1.18421ZM2.5658 5.92105C1.15105 5.92105 0 7.07211 0 8.48684C0 8.48684 0 12.0395 0 12.0395C0 12.3663 0.264862 12.6316 0.592102 12.6316C0.592102 12.6316 2.76315 12.6316 2.76315 12.6316C2.76315 12.6316 2.76315 9.27632 2.76315 9.27632C2.76315 8.13355 3.22781 7.09702 3.97821 6.34663C3.57281 6.07821 3.08763 5.92105 2.5658 5.92105C2.5658 5.92105 2.5658 5.92105 2.5658 5.92105ZM6.9079 5.92105C5.05777 5.92105 3.55263 7.42618 3.55263 9.27632C3.55263 9.27632 3.55263 13.2237 3.55263 13.2237C3.55263 13.5505 3.8175 13.8158 4.14473 13.8158C4.14473 13.8158 7.89474 13.8158 7.89474 13.8158C7.89474 13.8158 7.89474 9.47368 7.89474 9.47368C7.89474 8.38579 8.29974 7.39298 8.9633 6.63035C8.39449 6.18785 7.68237 5.92105 6.9079 5.92105C6.9079 5.92105 6.9079 5.92105 6.9079 5.92105ZM12.2368 5.92105C10.2782 5.92105 8.6842 7.51461 8.6842 9.47368C8.6842 9.47368 8.6842 14.4079 8.6842 14.4079C8.6842 14.7347 8.94908 15 9.27632 15C9.27632 15 15.1974 15 15.1974 15C15.5246 15 15.7895 14.7347 15.7895 14.4079C15.7895 14.4079 15.7895 9.47368 15.7895 9.47368C15.7895 7.51461 14.1955 5.92105 12.2368 5.92105C12.2368 5.92105 12.2368 5.92105 12.2368 5.92105Z" fill="#000000" />
</svg>