<?xml version="1.0" encoding="utf-8"?>
<svg width="15" height="15" viewBox="0 0 15 15" fill="none" xmlns="http://www.w3.org/2000/svg">
  <path d="M13.9583 15C13.9583 15 10.2083 15 10.2083 15C9.63292 15 9.16667 14.5696 9.16667 14.0385C9.16667 14.0385 9.16667 10.5769 9.16667 10.5769C9.16667 10.1519 8.79375 9.80769 8.33333 9.80769C8.33333 9.80769 6.66667 9.80769 6.66667 9.80769C6.20625 9.80769 5.83333 10.1519 5.83333 10.5769C5.83333 10.5769 5.83333 14.0385 5.83333 14.0385C5.83333 14.5696 5.36708 15 4.79167 15C4.79167 15 1.04167 15 1.04167 15C0.466248 15 0 14.5696 0 14.0385C0 14.0385 0 6.69731 0 6.69731C0 5.81308 0.439163 4.97769 1.19125 4.43077C1.19125 4.43077 7.11292 0.123462 7.11292 0.123462C7.34 -0.0411539 7.66 -0.0411539 7.88667 0.123462C7.88667 0.123462 13.8092 4.43077 13.8092 4.43077C14.5612 4.97769 15 5.81269 15 6.69654C15 6.69654 15 14.0385 15 14.0385C15 14.5696 14.5338 15 13.9583 15C13.9583 15 13.9583 15 13.9583 15Z" fill="#000000" fill-rule="evenodd" />
</svg>