<?xml version="1.0" encoding="utf-8"?>
<svg width="20.058" height="20" viewBox="0 0 20.058 20" fill="none" xmlns="http://www.w3.org/2000/svg">
  <path d="M19.8496 14.5843C19.4039 13.259 17.3541 11.6977 15.2575 10.8321C15.0697 10.7549 14.8593 10.843 14.7674 11.0237C14.363 11.8138 13.8387 12.5477 13.1936 13.1936C12.5407 13.8465 11.7982 14.3755 10.9973 14.7814C10.8157 14.8734 10.7269 15.0845 10.804 15.2723C11.6969 17.4351 13.3276 19.5317 14.5843 19.8488C18.0888 20.7339 20.8531 17.5707 19.8496 14.5843C19.8496 14.5843 19.8496 14.5843 19.8496 14.5843ZM7.08296 0C3.17114 9.53674e-07 0 3.17115 0 7.08297C0 10.9948 3.17116 14.1659 7.08296 14.1659C10.9948 14.1659 14.1659 10.9948 14.1659 7.08296C14.1659 3.17115 10.9948 9.53674e-07 7.08296 9.53674e-07C7.08296 9.53674e-07 7.08296 0 7.08296 0Z" fill="#A3A3A3" />
</svg>