<?xml version="1.0" encoding="UTF-8"?>
<!DOCTYPE svg PUBLIC "-//W3C//DTD SVG 1.1//EN" "http://www.w3.org/Graphics/SVG/1.1/DTD/svg11.dtd">
<svg xmlns="http://www.w3.org/2000/svg" version="1.1" width="1024px" height="1024px" style="shape-rendering:geometricPrecision; text-rendering:geometricPrecision; image-rendering:optimizeQuality; fill-rule:evenodd; clip-rule:evenodd" xmlns:xlink="http://www.w3.org/1999/xlink">
<g><path style="opacity:0.998" fill="#f8c204" d="M 329.5,112.5 C 352.488,109.556 372.655,115.556 390,130.5C 394.303,135.438 397.303,141.104 399,147.5C 399.667,229.167 399.667,310.833 399,392.5C 360.213,417.287 328.879,449.287 305,488.5C 298.661,502.191 292.328,515.858 286,529.5C 285.333,528.833 284.667,528.167 284,527.5C 283.333,400.833 283.333,274.167 284,147.5C 289.404,131.522 300.237,121.022 316.5,116C 320.929,114.682 325.262,113.516 329.5,112.5 Z"/></g>
<g><path style="opacity:0.999" fill="#fffefe" d="M 669.5,399.5 C 686.007,407.849 695.84,421.183 699,439.5C 703.13,465.726 694.297,486.226 672.5,501C 666.883,504.317 660.883,506.65 654.5,508C 645.506,508.5 636.506,508.666 627.5,508.5C 582.634,482.45 535.968,478.283 487.5,496C 427.826,523.391 396.159,570.058 392.5,636C 396.159,701.942 427.826,748.609 487.5,776C 522.184,788.91 557.184,790.244 592.5,780C 623.461,771.206 636.628,751.04 632,719.5C 624.865,700.703 611.365,689.536 591.5,686C 564.686,687.525 546.186,676.025 536,651.5C 529.759,623.508 539.259,603.008 564.5,590C 567.167,589.333 569.833,588.667 572.5,588C 594.038,586.432 615.371,587.765 636.5,592C 645.601,596.373 654.934,600.373 664.5,604C 676.211,610.182 687.211,617.348 697.5,625.5C 740.484,666.292 756.317,715.959 745,774.5C 736.85,806.494 720.35,833.16 695.5,854.5C 672.65,865.913 648.983,875.747 624.5,884C 534.22,908.011 452.22,891.677 378.5,835C 303.578,769.601 273.078,687.434 287,588.5C 303.469,506.414 347.969,444.914 420.5,404C 483.195,371.811 548.862,363.811 617.5,380C 631.926,385.587 646.593,390.587 661.5,395C 664.032,396.765 666.699,398.265 669.5,399.5 Z"/></g>
<g><path style="opacity:0.988" fill="#f9c205" d="M 669.5,399.5 C 736.081,429.265 782.581,478.598 809,547.5C 839.269,642.154 822.602,727.488 759,803.5C 740.251,823.775 719.084,840.775 695.5,854.5C 720.35,833.16 736.85,806.494 745,774.5C 756.317,715.959 740.484,666.292 697.5,625.5C 692.365,575.417 669.032,536.417 627.5,508.5C 636.506,508.666 645.506,508.5 654.5,508C 660.883,506.65 666.883,504.317 672.5,501C 694.297,486.226 703.13,465.726 699,439.5C 695.84,421.183 686.007,407.849 669.5,399.5 Z"/></g>
<g><path style="opacity:0.004" fill="#101110" d="M 362.5,428.5 C 363.833,429.167 363.833,429.167 362.5,428.5 Z"/></g>
<g><path style="opacity:0.004" fill="#161616" d="M 359.5,431.5 C 360.289,431.783 360.956,432.283 361.5,433C 360.184,433.528 359.517,433.028 359.5,431.5 Z"/></g>
<g><path style="opacity:0.004" fill="#020202" d="M 354.5,435.5 C 354.783,434.711 355.283,434.044 356,433.5C 356.528,434.816 356.028,435.483 354.5,435.5 Z"/></g>
<g><path style="opacity:0.005" fill="#060504" d="M 354.5,435.5 C 354.762,436.978 354.429,438.311 353.5,439.5C 349.958,442.23 346.625,445.23 343.5,448.5C 342.167,447.5 342.167,446.5 343.5,445.5C 346.537,441.463 350.203,438.129 354.5,435.5 Z"/></g>
<g><path style="opacity:0.006" fill="#040301" d="M 336.5,452.5 C 337.552,452.351 338.552,452.517 339.5,453C 338.167,453.667 338.167,454.333 339.5,455C 328.977,467.962 327.977,467.128 336.5,452.5 Z"/></g>
<g><path style="opacity:0.004" fill="#110d06" d="M 328.5,466.5 C 329.833,467.167 329.833,467.167 328.5,466.5 Z"/></g>
<g><path style="opacity:0.004" fill="#050300" d="M 324.5,470.5 C 326.337,470.639 326.67,471.306 325.5,472.5C 324.702,472.043 324.369,471.376 324.5,470.5 Z"/></g>
<g><path style="opacity:0.004" fill="#060503" d="M 306.5,498.5 C 307.525,498.897 307.692,499.563 307,500.5C 306.536,499.906 306.369,499.239 306.5,498.5 Z"/></g>
<g><path style="opacity:0.004" fill="#070605" d="M 303.5,504.5 C 305.656,504.872 305.656,505.872 303.5,507.5C 302.438,506.575 302.438,505.575 303.5,504.5 Z"/></g>
<g><path style="opacity:0.004" fill="#0d0c08" d="M 300.5,512.5 C 301.833,513.167 301.833,513.167 300.5,512.5 Z"/></g>
<g><path style="opacity:0.006" fill="#060503" d="M 290.5,531.5 C 293.927,532.596 293.927,534.262 290.5,536.5C 289.334,534.833 289.334,533.166 290.5,531.5 Z"/></g>
<g><path style="opacity:0.006" fill="#f9c204" d="M 500.5,680.5 C 506.899,682.326 506.899,683.66 500.5,684.5C 500.5,683.167 500.5,681.833 500.5,680.5 Z"/></g>
</svg>
